<?xml version="1.0" encoding="UTF-8" standalone="no"?>
<!-- Created with Inkscape (http://www.inkscape.org/) -->

<svg
   xmlns:dc="http://purl.org/dc/elements/1.1/"
   xmlns:cc="http://creativecommons.org/ns#"
   xmlns:rdf="http://www.w3.org/1999/02/22-rdf-syntax-ns#"
   xmlns:svg="http://www.w3.org/2000/svg"
   xmlns="http://www.w3.org/2000/svg"
   xmlns:sodipodi="http://sodipodi.sourceforge.net/DTD/sodipodi-0.dtd"
   xmlns:inkscape="http://www.inkscape.org/namespaces/inkscape"
   id="svg2985"
   version="1.1"
   inkscape:version="0.48.1 r9760"
   width="262.58801"
   height="186.3365"
   xml:space="preserve"
   sodipodi:docname="twitter_newbird_blue.eps"
   inkscape:export-filename="/home/robert/frickelei/streaming-portal/django-frontend/frontend/site_media/twitter.png"
   inkscape:export-xdpi="30"
   inkscape:export-ydpi="30"><metadata
     id="metadata2991"><rdf:RDF><cc:Work
         rdf:about=""><dc:format>image/svg+xml</dc:format><dc:type
           rdf:resource="http://purl.org/dc/dcmitype/StillImage" /><dc:title></dc:title></cc:Work></rdf:RDF></metadata><defs
     id="defs2989" /><sodipodi:namedview
     pagecolor="#ffffff"
     bordercolor="#666666"
     borderopacity="1"
     objecttolerance="10"
     gridtolerance="10"
     guidetolerance="10"
     inkscape:pageopacity="0"
     inkscape:pageshadow="2"
     inkscape:window-width="953"
     inkscape:window-height="480"
     id="namedview2987"
     showgrid="false"
     fit-margin-top="0"
     fit-margin-left="0"
     fit-margin-right="0"
     fit-margin-bottom="0"
     inkscape:zoom="1.6461359"
     inkscape:cx="126.46724"
     inkscape:cy="98.57664"
     inkscape:window-x="0"
     inkscape:window-y="0"
     inkscape:window-maximized="0"
     inkscape:current-layer="g2993" /><g
     id="g2993"
     inkscape:groupmode="layer"
     inkscape:label="ink_ext_XXXXXX"
     transform="matrix(1.25,0,0,-1.25,37.555469,178.57861)"><g
       id="g2995"
       transform="matrix(-0.07117244,0,0,0.07117244,149.98167,39.439372)"
       inkscape:export-filename="/home/robert/frickelei/streaming-portal/django-frontend/frontend/site_media/twitter.png"
       inkscape:export-xdpi="20.23892"
       inkscape:export-ydpi="20.23892"><path
         d="m 2107.3,782.887 c -74.17,-12.657 -181.73,0.508 -238.72,24.218 118.44,9.805 198.62,63.633 229.5,136.7 -42.66,-26.282 -175.25,-54.891 -248.36,-27.629 -3.65,17.207 -7.61,33.566 -11.63,48.371 -55.68,204.943 -246.66,370.073 -446.62,350.113 16.11,6.55 32.48,12.62 49,18.17 21.9,7.89 151.14,28.96 130.82,74.53 -17.22,40.19 -175.09,-30.22 -204.8,-39.47 39.24,14.7 104.14,40.07 111.05,85.25 -60.09,-8.24 -119.1,-36.7 -164.68,-78.07 16.48,17.72 28.96,39.32 31.6,62.6 -160.36,-102.58 -254.04,-309.2 -329.8,-509.799 -59.5,57.789 -112.387,103.259 -159.644,128.589 -132.735,71.15 -291.504,145.51 -540.637,238.14 -7.656,-82.51 40.754,-192.31 180.148,-265.21 -30.175,4.08 -85.41,-5.06 -129.511,-15.55 C 382.973,919.215 441.742,841.332 600.953,803.715 528.207,798.93 490.551,782.262 456.52,746.641 489.645,680.863 570.59,603.5 715.922,619.41 554.176,549.594 649.965,420.359 781.605,439.648 557.172,207.5 203.238,224.699 0,418.73 530.57,-305.02 1684.05,-9.23047 1855.85,687.855 c 128.9,-1.043 204.51,44.622 251.45,95.032"
         style="fill:#6887bb;fill-opacity:1;fill-rule:nonzero;stroke:none"
         id="path2997"
         inkscape:connector-curvature="0" /></g><text
       xml:space="preserve"
       style="font-size:32px;font-style:normal;font-variant:normal;font-weight:800;font-stretch:normal;line-height:125%;letter-spacing:0px;word-spacing:0px;fill:#6887bb;fill-opacity:1;stroke:none;font-family:PicoBlackAl;-inkscape-font-specification:PicoBlackAl Ultra-Bold"
       x="-30.761175"
       y="6.2063131"
       id="text2999"
       sodipodi:linespacing="125%"
       transform="scale(1,-1)"
       inkscape:export-filename="/home/robert/frickelei/streaming-portal/django-frontend/frontend/site_media/twitter.png"
       inkscape:export-xdpi="20.23892"
       inkscape:export-ydpi="20.23892"><tspan
         sodipodi:role="line"
         id="tspan3001"
         x="-30.761175"
         y="6.2063131"
         style="font-size:51.20000076px;fill:#6887bb;fill-opacity:1">FOLLOW US</tspan></text>
</g></svg>